<svg width="20" height="20" viewBox="0 0 20 20" fill="none" xmlns="http://www.w3.org/2000/svg">
<path d="M18.3333 10.8334V14.1667C18.3333 17.0834 16.6667 18.3334 14.1667 18.3334H5.83334C3.33334 18.3334 1.66667 17.0834 1.66667 14.1667V10.8334C1.66667 8.62502 2.62501 7.37504 4.16667 6.90004C4.66667 6.74171 5.225 6.66669 5.83334 6.66669H14.1667C14.775 6.66669 15.3333 6.74171 15.8333 6.90004C17.375 7.37504 18.3333 8.62502 18.3333 10.8334Z" stroke="#F5F5F5" stroke-width="1.5" stroke-miterlimit="10" stroke-linecap="round" stroke-linejoin="round"/>
<path d="M15.8333 5.83335V6.90004C15.3333 6.74171 14.775 6.66669 14.1667 6.66669H5.83334C5.22501 6.66669 4.66667 6.74171 4.16667 6.90004V5.83335C4.16667 4.91669 4.91667 4.16669 5.83334 4.16669H14.1667C15.0833 4.16669 15.8333 4.91669 15.8333 5.83335Z" stroke="#F5F5F5" stroke-width="1.5" stroke-miterlimit="10" stroke-linecap="round" stroke-linejoin="round"/>
<path d="M13.3333 2.92503V4.16669H6.66667V2.92503C6.66667 2.23336 7.23335 1.66669 7.92501 1.66669H12.075C12.7667 1.66669 13.3333 2.23336 13.3333 2.92503Z" stroke="#F5F5F5" stroke-width="1.5" stroke-miterlimit="10" stroke-linecap="round" stroke-linejoin="round"/>
<path d="M7.55833 16.2084C8.16585 16.2084 8.65834 15.7159 8.65834 15.1084C8.65834 14.5009 8.16585 14.0084 7.55833 14.0084C6.95082 14.0084 6.45833 14.5009 6.45833 15.1084C6.45833 15.7159 6.95082 16.2084 7.55833 16.2084Z" stroke="#F5F5F5" stroke-width="1.5" stroke-linecap="round" stroke-linejoin="round"/>
<path d="M12.7083 14.375V10.0667C12.7083 9.15002 12.1333 9.01669 11.55 9.18335L9.34169 9.78333C8.94168 9.89166 8.66669 10.2083 8.66669 10.6667V11.4333V11.95V15.1083" stroke="#F5F5F5" stroke-width="1.5" stroke-linecap="round" stroke-linejoin="round"/>
<path d="M11.6083 15.475C12.2158 15.475 12.7083 14.9825 12.7083 14.375C12.7083 13.7675 12.2158 13.275 11.6083 13.275C11.0008 13.275 10.5083 13.7675 10.5083 14.375C10.5083 14.9825 11.0008 15.475 11.6083 15.475Z" stroke="#F5F5F5" stroke-width="1.5" stroke-linecap="round" stroke-linejoin="round"/>
<path d="M8.66669 11.9584L12.7083 10.8584" stroke="#F5F5F5" stroke-width="1.5" stroke-linecap="round" stroke-linejoin="round"/>
</svg>
