<svg width="27" height="27" viewBox="0 0 27 27" fill="none" xmlns="http://www.w3.org/2000/svg">
<path d="M3.6 4.5C3.1014 4.5 2.7 4.9014 2.7 5.4C2.7 5.8986 3.1014 6.3 3.6 6.3H17.1C17.5986 6.3 18 5.8986 18 5.4C18 4.9014 17.5986 4.5 17.1 4.5H3.6ZM3.6 10.8C3.1014 10.8 2.7 11.2014 2.7 11.7C2.7 12.1986 3.1014 12.6 3.6 12.6H19.8C20.2986 12.6 20.7 12.1986 20.7 11.7C20.7 11.2014 20.2986 10.8 19.8 10.8H3.6ZM19.7543 15.3035C19.4458 15.3035 19.145 15.3337 18.8543 15.3932V18.8596H15.3896C15.3302 19.1503 15.3 19.4511 15.3 19.7596C15.3 20.068 15.3302 20.3689 15.3896 20.6596H18.8543V24.1242C19.145 24.1837 19.4458 24.2139 19.7543 24.2139C20.0628 24.2139 20.3636 24.1837 20.6543 24.1242V20.6596H24.1207C24.1802 20.3689 24.2103 20.068 24.2103 19.7596C24.2103 19.4511 24.1802 19.1503 24.1207 18.8596H20.6543V15.3932C20.3636 15.3337 20.0628 15.3035 19.7543 15.3035ZM3.6 17.1C3.1014 17.1 2.7 17.5014 2.7 18C2.7 18.4986 3.1014 18.9 3.6 18.9H12.6C13.0986 18.9 13.5 18.4986 13.5 18C13.5 17.5014 13.0986 17.1 12.6 17.1H3.6Z" fill="white"/>
</svg>
