<svg width="18" height="18" viewBox="0 0 18 18" fill="none" xmlns="http://www.w3.org/2000/svg">
<g clip-path="url(#clip0_44_614)">
<path d="M8.15048 17.9916H9.84951C10.1748 17.9916 10.4538 17.9004 10.6864 17.7181C10.9192 17.5357 11.072 17.2875 11.1449 16.9734L11.5066 15.3997L11.7757 15.3072L13.1468 16.1486C13.4159 16.3226 13.6991 16.3899 13.9963 16.3506C14.2935 16.3113 14.5571 16.1767 14.787 15.9467L15.9646 14.7769C16.1944 14.5469 16.329 14.2833 16.3682 13.986C16.4075 13.6886 16.3402 13.4053 16.1664 13.136L15.3084 11.7728L15.4094 11.5203L16.9823 11.1501C17.2907 11.0771 17.5374 10.9228 17.7225 10.6872C17.9075 10.4516 18 10.1739 18 9.85408V8.18793C18 7.86815 17.9075 7.59045 17.7225 7.35483C17.5374 7.11921 17.2907 6.96493 16.9823 6.892L15.4262 6.51331L15.3168 6.24403L16.1748 4.88078C16.3486 4.61149 16.4159 4.32959 16.3767 4.03506C16.3374 3.74053 16.2028 3.47545 15.9729 3.23983L14.7953 2.06171C14.571 1.8373 14.3103 1.70546 14.0131 1.66619C13.7159 1.62692 13.4328 1.69144 13.1636 1.85974L11.7925 2.70126L11.5066 2.59186L11.1449 1.01823C11.072 0.709676 10.9192 0.462832 10.6864 0.2777C10.4538 0.0925666 10.1748 0 9.84951 0H8.15048C7.82525 0 7.54627 0.0925666 7.31356 0.2777C7.08086 0.462832 6.92805 0.709676 6.85515 1.01823L6.48506 2.59186L6.19908 2.70126L4.83645 1.85974C4.56169 1.69144 4.27711 1.62692 3.98271 1.66619C3.68832 1.70546 3.42618 1.8373 3.19627 2.06171L2.02711 3.23983C1.79159 3.47545 1.65561 3.74053 1.61916 4.03506C1.58271 4.32959 1.65141 4.61149 1.82524 4.88078L2.67477 6.24403L2.57384 6.51331L1.01776 6.892C0.70374 6.96493 0.455609 7.11921 0.273365 7.35483C0.0911217 7.59045 0 7.86815 0 8.18793V9.85408C0 10.1739 0.0925236 10.4516 0.277571 10.6872C0.462618 10.9228 0.709347 11.0771 1.01776 11.1501L2.59066 11.5203L2.68318 11.7728L1.83365 13.136C1.65982 13.4053 1.59112 13.6886 1.62757 13.986C1.66402 14.2833 1.8 14.5469 2.03552 14.7769L3.20468 15.9467C3.43458 16.1767 3.69813 16.3113 3.99533 16.3506C4.29253 16.3899 4.57851 16.3226 4.85328 16.1486L6.2159 15.3072L6.48506 15.3997L6.85515 16.9734C6.92805 17.2875 7.08086 17.5357 7.31356 17.7181C7.54627 17.9004 7.82525 17.9916 8.15048 17.9916ZM8.28506 16.6788C8.14487 16.6788 8.06357 16.6143 8.04114 16.4853L7.53646 14.3983C7.27852 14.3366 7.03319 14.2567 6.80048 14.1585C6.56777 14.0603 6.36169 13.9551 6.18225 13.8429L4.34861 14.9705C4.24767 15.0434 4.14393 15.0294 4.03739 14.9284L3.04487 13.9355C2.95515 13.8513 2.94393 13.7475 3.01122 13.6241L4.13833 11.8065C4.043 11.6269 3.94487 11.4222 3.84393 11.1921C3.743 10.9621 3.65889 10.7181 3.59159 10.46L1.50561 9.96352C1.37664 9.94106 1.31215 9.85971 1.31215 9.71949V8.31416C1.31215 8.17951 1.37664 8.09816 1.50561 8.07011L3.58319 7.56521C3.65047 7.29031 3.73879 7.03505 3.84813 6.79943C3.95748 6.56381 4.0486 6.36745 4.12151 6.21037L3.00281 4.3927C2.92992 4.26928 2.93832 4.15988 3.02804 4.06451L4.02898 3.08835C4.12992 2.99859 4.23646 2.98457 4.34861 3.04628L6.16543 4.14866C6.34487 4.04768 6.55655 3.9467 6.80048 3.84572C7.0444 3.74474 7.29254 3.66058 7.54488 3.59326L8.04114 1.50631C8.06357 1.37728 8.14487 1.31276 8.28506 1.31276H9.71497C9.85514 1.31276 9.93363 1.37728 9.95046 1.50631L10.4635 3.61009C10.7271 3.67741 10.9724 3.76016 11.1995 3.85834C11.4266 3.95652 11.6327 4.0561 11.8178 4.15708L13.643 3.04628C13.7607 2.98457 13.8701 2.99859 13.9711 3.08835L14.9635 4.06451C15.0589 4.15988 15.0673 4.26928 14.9888 4.3927L13.8701 6.21037C13.9486 6.36745 14.0411 6.56381 14.1477 6.79943C14.2542 7.03505 14.3411 7.29031 14.4084 7.56521L16.4944 8.07011C16.6234 8.09816 16.6879 8.17951 16.6879 8.31416V9.71949C16.6879 9.85971 16.6234 9.94106 16.4944 9.96352L14.4001 10.46C14.3328 10.7181 14.2501 10.9621 14.1519 11.1921C14.0538 11.4222 13.9543 11.6269 13.8533 11.8065L14.9804 13.6241C15.0533 13.7475 15.0421 13.8513 14.9467 13.9355L13.9626 14.9284C13.8561 15.0294 13.7496 15.0434 13.643 14.9705L11.8093 13.8429C11.6299 13.9551 11.4252 14.0603 11.1953 14.1585C10.9655 14.2567 10.7215 14.3366 10.4635 14.3983L9.95046 16.4853C9.93363 16.6143 9.85514 16.6788 9.71497 16.6788H8.28506ZM9 12.2103C9.58879 12.2103 10.1257 12.0659 10.6107 11.777C11.0958 11.4881 11.4828 11.0996 11.7715 10.6115C12.0603 10.1234 12.2047 9.58483 12.2047 8.99582C12.2047 8.41235 12.0603 7.87797 11.7715 7.3927C11.4828 6.90743 11.0958 6.52033 10.6107 6.23141C10.1257 5.94249 9.58879 5.79803 9 5.79803C8.41123 5.79803 7.87431 5.94249 7.38926 6.23141C6.90422 6.52033 6.5159 6.90743 6.22431 7.3927C5.93272 7.87797 5.78693 8.41235 5.78693 8.99582C5.78693 9.58483 5.93272 10.122 6.22431 10.6073C6.5159 11.0926 6.90422 11.481 7.38926 11.7728C7.87431 12.0645 8.41123 12.2103 9 12.2103ZM9 10.906C8.65235 10.906 8.33413 10.8204 8.04534 10.6494C7.75656 10.4782 7.52665 10.2482 7.35562 9.9593C7.18459 9.6704 7.09908 9.34924 7.09908 8.99582C7.09908 8.64797 7.18459 8.33098 7.35562 8.04487C7.52665 7.75876 7.75656 7.53014 8.04534 7.35904C8.33413 7.18793 8.65235 7.10238 9 7.10238C9.34206 7.10238 9.65609 7.18793 9.9421 7.35904C10.2281 7.53014 10.4566 7.75876 10.6276 8.04487C10.7986 8.33098 10.8841 8.64797 10.8841 8.99582C10.8841 9.34361 10.7986 9.66198 10.6276 9.95094C10.4566 10.2398 10.2281 10.4712 9.9421 10.6451C9.65609 10.819 9.34206 10.906 9 10.906Z" fill="white" fill-opacity="0.9"/>
</g>
<defs>
<clipPath id="clip0_44_614">
<rect width="18" height="18" fill="white"/>
</clipPath>
</defs>
</svg>
