<svg width="22" height="23" viewBox="0 0 22 23" fill="none" xmlns="http://www.w3.org/2000/svg">
<g clip-path="url(#clip0_19_204)">
<path d="M22 11.775C22 11 21.9266 10.2 21.8044 9.44995H11.22V13.875H17.2822C17.0377 15.3 16.2311 16.55 15.0333 17.35L18.6511 20.225C20.7777 18.2 22 15.25 22 11.775Z" fill="#4280EF"/>
<path d="M11.22 22.975C14.2511 22.975 16.7933 21.95 18.6511 20.2L15.0333 17.35C14.0311 18.05 12.7355 18.45 11.22 18.45C8.28664 18.45 5.81775 16.425 4.91331 13.725L1.19775 16.65C3.10442 20.525 6.96664 22.975 11.22 22.975Z" fill="#34A353"/>
<path d="M4.91333 13.7C4.44888 12.275 4.44888 10.725 4.91333 9.29998L1.19777 6.34998C-0.391119 9.59998 -0.391119 13.425 1.19777 16.65L4.91333 13.7Z" fill="#F6B704"/>
<path d="M11.22 4.57498C12.8089 4.54997 14.3733 5.17497 15.5222 6.29997L18.7244 2.99997C16.6955 1.04997 14.0066 -2.75392e-05 11.22 0.0249725C6.96664 0.0249725 3.10442 2.47497 1.19775 6.34998L4.91331 9.29998C5.81775 6.57498 8.28664 4.57498 11.22 4.57498Z" fill="#E54335"/>
</g>
<defs>
<clipPath id="clip0_19_204">
<rect width="22" height="23" fill="white"/>
</clipPath>
</defs>
</svg>
