<svg width="19" height="21" viewBox="0 0 19 21" fill="none" xmlns="http://www.w3.org/2000/svg">
<g clip-path="url(#clip0_44_626)">
<path d="M0 15.9391C0 16.3083 0.134252 16.6036 0.402756 16.8252C0.671261 17.0467 1.04381 17.1574 1.52041 17.1574H5.76948C5.79634 17.8085 5.97254 18.4093 6.2981 18.9598C6.62366 19.5102 7.06166 19.9549 7.61209 20.2939C8.16253 20.6329 8.79015 20.8024 9.49498 20.8024C10.2065 20.8024 10.8375 20.6346 11.3879 20.2989C11.9384 19.9633 12.3764 19.5186 12.7019 18.9648C13.0275 18.411 13.2037 17.8085 13.2305 17.1574H17.4796C17.9562 17.1574 18.3288 17.0467 18.5973 16.8252C18.8658 16.6036 19 16.3083 19 15.9391C19 15.6035 18.9027 15.2779 18.708 14.9624C18.5133 14.6469 18.27 14.3381 17.978 14.0361C17.686 13.734 17.3957 13.4319 17.1071 13.1299C16.8855 12.9016 16.7127 12.6029 16.5886 12.2337C16.4644 11.8645 16.372 11.4718 16.3116 11.0557C16.2512 10.6395 16.2076 10.2367 16.1808 9.84739C16.1606 8.52501 16.0213 7.36205 15.7629 6.35851C15.5044 5.35498 15.1034 4.51758 14.5596 3.84632C14.0159 3.17507 13.2977 2.67833 12.4048 2.35613C12.2371 1.69829 11.8964 1.14114 11.3829 0.684685C10.8694 0.228228 10.2401 0 9.49498 0C8.7566 0 8.13065 0.228228 7.61713 0.684685C7.10361 1.14114 6.76295 1.69829 6.59513 2.35613C5.70236 2.67833 4.98244 3.17507 4.43536 3.84632C3.88828 4.51758 3.4872 5.35498 3.23212 6.35851C2.97704 7.36205 2.83943 8.52501 2.8193 9.84739C2.79244 10.2367 2.74881 10.6395 2.6884 11.0557C2.62798 11.4718 2.53569 11.8645 2.41151 12.2337C2.28732 12.6029 2.11447 12.9016 1.89296 13.1299C1.60432 13.4319 1.314 13.734 1.02199 14.0361C0.729996 14.3381 0.486664 14.6469 0.291998 14.9624C0.0973327 15.2779 0 15.6035 0 15.9391ZM1.95337 15.637V15.5162C2.01378 15.4222 2.11447 15.2963 2.25544 15.1386C2.3964 14.9808 2.55583 14.808 2.73371 14.6201C2.9116 14.4321 3.0878 14.2407 3.26232 14.0461C3.44356 13.8447 3.60131 13.6115 3.73557 13.3463C3.86982 13.0812 3.98393 12.7808 4.07791 12.4452C4.17189 12.1095 4.24572 11.737 4.29942 11.3275C4.35313 10.918 4.3934 10.4683 4.42025 9.97828C4.4471 8.51494 4.59813 7.35366 4.87335 6.49445C5.14857 5.63523 5.51608 4.99586 5.9759 4.57632C6.43571 4.15678 6.95426 3.86646 7.53155 3.70536C7.65908 3.67851 7.75641 3.62984 7.82354 3.55936C7.89067 3.48888 7.92759 3.38987 7.9343 3.26232C7.95444 2.73874 8.10379 2.31081 8.38236 1.97855C8.66094 1.64627 9.03181 1.48013 9.49498 1.48013C9.96486 1.48013 10.3391 1.64627 10.6177 1.97855C10.8962 2.31081 11.0456 2.73874 11.0657 3.26232C11.0657 3.38987 11.101 3.48888 11.1715 3.55936C11.242 3.62984 11.3376 3.67851 11.4584 3.70536C12.0357 3.86646 12.5542 4.15678 13.0141 4.57632C13.4739 4.99586 13.8431 5.63523 14.1217 6.49445C14.4002 7.35366 14.5529 8.51494 14.5798 9.97828C14.5999 10.4683 14.6385 10.918 14.6955 11.3275C14.7526 11.737 14.8265 12.1095 14.9171 12.4452C15.0077 12.7808 15.1201 13.0812 15.2544 13.3463C15.3886 13.6115 15.5464 13.8447 15.7276 14.0461C15.9089 14.2407 16.0885 14.4321 16.2664 14.6201C16.4442 14.808 16.602 14.9808 16.7396 15.1386C16.8772 15.2963 16.9761 15.4222 17.0366 15.5162V15.637H1.95337ZM7.34023 17.1574H11.6598C11.6195 17.8421 11.4014 18.3841 11.0053 18.7836C10.6093 19.1829 10.1059 19.3826 9.49498 19.3826C8.89085 19.3826 8.38908 19.1829 7.98968 18.7836C7.59028 18.3841 7.3738 17.8421 7.34023 17.1574Z" fill="white" fill-opacity="0.9"/>
</g>
<defs>
<clipPath id="clip0_44_626">
<rect width="18.4277" height="20.1855" fill="white" transform="scale(1.03106)"/>
</clipPath>
</defs>
</svg>
