<svg width="22" height="27" viewBox="0 0 22 27" fill="none" xmlns="http://www.w3.org/2000/svg">
<path d="M11.3266 6.16483C12.5469 6.16483 14.0766 5.34965 14.9875 4.26274C15.8125 3.27772 16.4141 1.9021 16.4141 0.526474C16.4141 0.339661 16.3969 0.152847 16.3625 0C15.0047 0.050949 13.3719 0.9001 12.3922 2.03796C11.6188 2.9041 10.9141 4.26274 10.9141 5.65534C10.9141 5.85914 10.9484 6.06294 10.9656 6.13087C11.0516 6.14785 11.1891 6.16483 11.3266 6.16483ZM7.02969 26.7143C8.69687 26.7143 9.43594 25.6104 11.5156 25.6104C13.6297 25.6104 14.0938 26.6803 15.95 26.6803C17.7719 26.6803 18.9922 25.016 20.1438 23.3856C21.4328 21.5175 21.9656 19.6833 22 19.5984C21.8797 19.5644 18.3906 18.1548 18.3906 14.1978C18.3906 10.7672 21.1406 9.22178 21.2953 9.1029C19.4734 6.52148 16.7063 6.45355 15.95 6.45355C13.9047 6.45355 12.2375 7.67632 11.1891 7.67632C10.0547 7.67632 8.55937 6.52148 6.78906 6.52148C3.42031 6.52148 0 9.27273 0 14.4695C0 17.6963 1.27187 21.1099 2.83594 23.3177C4.17656 25.1858 5.34531 26.7143 7.02969 26.7143Z" fill="white"/>
</svg>
